<svg xmlns="http://www.w3.org/2000/svg" xmlns:xlink="http://www.w3.org/1999/xlink" width="300.595" height="76.5" viewBox="0 0 300.595 76.5">
  <defs>
    <clipPath id="clip-path">
      <rect id="Rectangle_2145" data-name="Rectangle 2145" width="203.595" height="51" fill="none"/>
    </clipPath>
    <clipPath id="clip-path-2">
      <rect id="Rectangle_2251" data-name="Rectangle 2251" width="60" height="34.497" fill="none"/>
    </clipPath>
    <clipPath id="clip-path-3">
      <rect id="Rectangle_2248" data-name="Rectangle 2248" width="2.133" height="5.115" fill="none"/>
    </clipPath>
  </defs>
  <g id="Group_4559" data-name="Group 4559" transform="translate(-28.405 -14.5)">
    <g id="Group_4511" data-name="Group 4511" transform="translate(28.405 14.5)">
      <g id="Group_4510" data-name="Group 4510" transform="translate(0 0)" clip-path="url(#clip-path)">
        <path id="Path_19108" data-name="Path 19108" d="M168.192,63.335V37.841h21.455l-.754,3.1H174.088v7.422h12.939L186.2,51.8H174.1v7.8h23.461l5.569-22.377s9.3-.026,13.577.008c8.877,0,14.776,5.056,11.848,14.059-1.772,5.5-7.535,12.046-18.768,12.046Zm38.3-3.7s1.413.006,2.06,0a10.568,10.568,0,0,0,8.507-4.15,14.539,14.539,0,0,0,2.831-6.942,12.906,12.906,0,0,0,.133-4.565,4.3,4.3,0,0,0-4.418-3.593h-4.3Z" transform="translate(-60.768 -13.443)" fill="#003d6e"/>
        <path id="Path_19109" data-name="Path 19109" d="M280.226,63.859c-10.03,0-14.741-5.969-12.572-14.429,2.468-9.626,10.667-13.837,19.6-13.837,8.273,0,14.551,4.83,12.441,14.014-1.675,7.285-8.556,14.253-19.473,14.253m6.3-24.972c-4.069,0-8.058,3.383-9.679,11.051-1.445,6.834-.225,10.134,4.133,10.134s7.608-3.619,9.419-10.345c1.86-6.907.2-10.839-3.872-10.839" transform="translate(-96.517 -12.859)" fill="#003d6e"/>
        <path id="Path_19110" data-name="Path 19110" d="M55.457,36.391c-6.1,0-13.053,3.673-13.053,13.837s6.527,13.834,13.053,13.834S68.51,60.393,68.51,50.228,61.553,36.391,55.457,36.391m0,24.179c-2.1,0-6.515-.95-6.515-10.344,0-9.644,4.563-10.647,6.515-10.647s6.515,1,6.515,10.647c0,9.394-4.416,10.344-6.515,10.344" transform="translate(-15.321 -13.148)" fill="#003d6e"/>
        <path id="Path_19111" data-name="Path 19111" d="M22.979,63.651H17.122V52.232H5.8V63.647H0V38.2H5.8V48.686H17.122V38.192h5.857Z" transform="translate(0 -13.799)" fill="#003d6e"/>
        <path id="Path_19112" data-name="Path 19112" d="M112.469,38.15h-5.915s.006,11.42-.006,16.736c0,2.531-.24,6.4-5.477,6.4s-5.477-3.865-5.477-6.4c-.013-5.317-.006-16.736-.006-16.736H89.673s-.016,12.091,0,17.917c0,4.956,4.468,8.646,11.4,8.646s11.4-3.69,11.4-8.646c.016-5.827,0-17.917,0-17.917" transform="translate(-32.396 -13.783)" fill="#003d6e"/>
        <path id="Path_19113" data-name="Path 19113" d="M149.595,37.566l-.857,3.395a13.811,13.811,0,0,0-4.713-1.365,9.99,9.99,0,0,0-3.734.209,3.027,3.027,0,0,0-2.492,2.251,2.977,2.977,0,0,0,1.369,3.2,20.6,20.6,0,0,0,2.716,1.544,35.724,35.724,0,0,1,5.1,2.7,8.043,8.043,0,0,1,3.317,4.086,7.308,7.308,0,0,1-2.8,8.368,13.274,13.274,0,0,1-8.506,2.064,18.266,18.266,0,0,1-7.892-2.648l1.026-4.117a12.2,12.2,0,0,0,8.122,3.394c3.654,0,4.6-2.2,4.6-3.457,0-2.025-1.874-3.277-2.6-3.7a39.448,39.448,0,0,0-4.4-2.235c-5.18-2.192-6.018-5.647-6.018-7.55a6.534,6.534,0,0,1,4.209-6.147,14.717,14.717,0,0,1,5.63-1.12,23.158,23.158,0,0,1,7.926,1.128" transform="translate(-47.367 -13.164)" fill="#003d6e"/>
        <path id="Path_19114" data-name="Path 19114" d="M48.6,3.506V2.783L52.181,3V1.426h.81v1.51c.559-.038,1.077-.064,1.594-.11s1.058-.116,1.668-.183c.012.241.022.453.037.741l-3.254.3V5.467l3.285-.293v.758L53,6.228c.029.648.056,1.241.084,1.882a10.331,10.331,0,0,1,3.527,1.9l-.452.724a9.5,9.5,0,0,0-3.013-1.781c0,.313.007.558,0,.8-.028.828-.458,1.658-2.177,1.658s-2.5-.7-2.5-1.645a1.477,1.477,0,0,1,1.054-1.551A5.908,5.908,0,0,1,52.3,7.952c-.029-.594-.054-1.128-.081-1.679l-3.646-.206L48.5,5.332l3.678.174V3.755L48.6,3.506m3.652,5.169a4.6,4.6,0,0,0-2.211.066c-.515.182-.825.549-.788.934a1.023,1.023,0,0,0,.855.882c1.6.482,2.373-.162,2.144-1.882" transform="translate(-17.513 -0.515)" fill="#003d6e"/>
        <path id="Path_19115" data-name="Path 19115" d="M92.928,10.875c2.827-.351,4.189-1.871,4.107-3.949A3.435,3.435,0,0,0,93.712,3.55c-.1.524-.2,1.06-.307,1.6A13.507,13.507,0,0,1,92.129,9.1a4.813,4.813,0,0,1-.867,1.161,1.488,1.488,0,0,1-2.131-.032,3.365,3.365,0,0,1-.98-2.456,5.163,5.163,0,0,1,7.54-4.443,4.118,4.118,0,0,1,2.15,4.2,4.038,4.038,0,0,1-2.778,3.657c-.493.193-1.02.3-1.6.466l-.531-.78M92.8,3.553a4.22,4.22,0,0,0-2.266.92A3.816,3.816,0,0,0,89.19,8.811c.188.437.439.841.964.908s.816-.31,1.04-.687A13.957,13.957,0,0,0,92.8,3.553" transform="translate(-31.848 -0.993)" fill="#003d6e"/>
        <path id="Path_19116" data-name="Path 19116" d="M168.62,5.284c.223-.042.448-.075.669-.126a1.855,1.855,0,0,1,2.387.957l3.066-1.36.317.707-3.391,1.42V9.174H170.9V7.441l-.14-.112c-.446.342-.916.658-1.33,1.036a1.224,1.224,0,0,0-.4,1.385,1.159,1.159,0,0,0,1.184.7c.949.017,1.9-.018,2.849-.054.39-.015.779-.088,1.212-.14v.795c-.492.049-.988.136-1.485.14a20.54,20.54,0,0,1-3.048-.071,1.686,1.686,0,0,1-1.1-2.933,9.418,9.418,0,0,1,1.608-1.3,6.161,6.161,0,0,1,.632-.378,1.186,1.186,0,0,0-1.5-.756,3.439,3.439,0,0,0-1.944,1.143c-.259.293-.508.595-.78.915l-.693-.5a12.951,12.951,0,0,0,2.709-3.743h-2.407c-.029-.293-.049-.492-.072-.726h2.78c.114-.465.229-.929.349-1.418h.766l-.278,1.431,3.518-.314v.735l-3.849.322-.85,1.7-.036.027c0,.007.008-.017.021-.041" transform="translate(-59.965 -0.513)" fill="#003d6e"/>
        <path id="Path_19117" data-name="Path 19117" d="M33.128,3.324h-3.27v-.75h4.125l.08-.146A16.8,16.8,0,0,0,31.558.606L32.091,0l2.725,1.836-.466.717h3v.78H34.033V6.158H36.94v.794h-2.9v3.23h3.5V10.9H29.528v-.683h3.593V6.976H30.278c-.017-.293.017-.506,0-.8h2.851Z" transform="translate(-10.669 0)" fill="#003d6e"/>
        <path id="Path_19118" data-name="Path 19118" d="M117.782,2.989v.752h-3.731a10.323,10.323,0,0,0,.214,2.184,4,4,0,0,1-1.527,4.661,7.389,7.389,0,0,1-.979.526,8.155,8.155,0,0,1-.779.27l-.561-.621c.589-.264,2.281-.627,3-2.227a1.982,1.982,0,0,1-2.314-.146,1.738,1.738,0,0,1-.63-1.273,2.014,2.014,0,0,1,2.822-2.034V3.711l-5.265.171c-.022-.222-.045-.441-.075-.74l5.319-.155V1.493h.859v1.5Zm-6.542,3.827A1.208,1.208,0,0,0,112.4,8.111c.707.04,1.2-.51,1.226-1.377a1.107,1.107,0,0,0-1.1-1.171,1.24,1.24,0,0,0-1.286,1.254" transform="translate(-39.004 -0.539)" fill="#003d6e"/>
        <path id="Path_19119" data-name="Path 19119" d="M209.5,3.1l.459.362A43.86,43.86,0,0,1,207.7,7.452c1.088,1.121,2.3,2.345,3.486,3.566l-.717.63c-1.123-1.2-2.062-2.317-3.327-3.568a15.153,15.153,0,0,1-4.751,3.537l-.615-.648a13.221,13.221,0,0,0,6.909-7.022h-5.907V3.1Z" transform="translate(-72.903 -1.121)" fill="#003d6e"/>
        <path id="Path_19120" data-name="Path 19120" d="M225.212,9.224l2,2.19c-.248.209-.567.486-.742.632a36.411,36.411,0,0,0-4.813-4.773l.637-.569,2.248,1.88a15.524,15.524,0,0,0,3.865-4.3l-4.192,0h-4.064V3.487h9.029l.52.4c-.511,1.192-1.681,2.584-4.486,5.341" transform="translate(-79.54 -1.26)" fill="#003d6e"/>
        <path id="Path_19121" data-name="Path 19121" d="M151.951,3.644l-5.385.655c-.037-.22-.078-.459-.14-.825l9.089-.848v.809c-.595.056-1.171.082-1.739.167a4.033,4.033,0,0,0-3,4.878,3.339,3.339,0,0,0,2.864,2.12c.292.061.591.086.968.138l-.244.766A4.465,4.465,0,0,1,150.1,9.09c-.687-1.673-.171-3.662,1.85-5.446" transform="translate(-52.904 -0.949)" fill="#003d6e"/>
        <path id="Path_19122" data-name="Path 19122" d="M260.184,1.73h.894V4.841l5.149,1.986-.367.875-4.754-1.928V11.19h-.923Z" transform="translate(-94.005 -0.625)" fill="#003d6e"/>
        <path id="Path_19123" data-name="Path 19123" d="M126.969,9.706l-.69-.6c1.092-1.328,2.117-2.6,3.178-3.852a1.057,1.057,0,0,1,1.826-.061c.518.529.971,1.12,1.471,1.668,1.246,1.368,2.5,2.728,3.8,4.141l-.6.7c-.431-.455-.853-.87-1.24-1.315-1.126-1.293-2.234-2.6-3.36-3.895a9.139,9.139,0,0,0-.68-.691.4.4,0,0,0-.643.049c-.67.779-1.122,1.378-1.406,1.749-.37.485-.916,1.188-1.657,2.106" transform="translate(-45.625 -1.697)" fill="#003d6e"/>
        <path id="Path_19124" data-name="Path 19124" d="M27.011.224,27.8.415C27.207,1.577,26.474,3,26.474,3v8.362h-.761V4.179c-.542.613-.976,1.2-1.443,1.727l-.485-.77A14.879,14.879,0,0,0,27.011.224" transform="translate(-8.593 -0.081)" fill="#003d6e"/>
        <path id="Path_19125" data-name="Path 19125" d="M72.173,8.169c.195.207.526.589.613.706a5.734,5.734,0,0,1-1.024,2.072,1.5,1.5,0,0,1-2.407.063c-1.388-1.8-1.388-4.639-1.388-7.816h.857c0,.851,0,1.678,0,2.506a10,10,0,0,0,.528,3.552,3.311,3.311,0,0,0,.5.9c.478.584.92.522,1.422-.036a6.042,6.042,0,0,0,.9-1.952" transform="translate(-24.557 -1.154)" fill="#003d6e"/>
        <path id="Path_19126" data-name="Path 19126" d="M276.535,8.918l.582-1.442.4.263-1,3.562L276,11.37c-.861-3.139-.311-6.208.214-9.322l.82.059a21.476,21.476,0,0,0-.65,6.79l.152.022" transform="translate(-99.557 -0.74)" fill="#003d6e"/>
        <rect id="Rectangle_2143" data-name="Rectangle 2143" width="8.872" height="0.882" transform="translate(153.147 5.249)" fill="#003d6e"/>
        <path id="Path_19127" data-name="Path 19127" d="M286.458,13.027v.832a12.478,12.478,0,0,1-3.97.153c-1.38-.165-1.884-.9-1.687-2.262.033-.226.091-.449.145-.708l.68.045-.091.773c-.084.728.171,1.222.917,1.3a25.233,25.233,0,0,0,3.046.013,7.408,7.408,0,0,0,.96-.147" transform="translate(-101.439 -3.99)" fill="#003d6e"/>
        <path id="Path_19128" data-name="Path 19128" d="M298.049,13.571a1.807,1.807,0,0,1-1.848,1.84,1.86,1.86,0,1,1,1.848-1.84m-1.854,1.288A1.342,1.342,0,0,0,297.5,13.58a1.3,1.3,0,1,0-2.6-.011,1.346,1.346,0,0,0,1.3,1.289" transform="translate(-106.344 -4.224)" fill="#003d6e"/>
        <path id="Path_19129" data-name="Path 19129" d="M78.835,3.7a11.465,11.465,0,0,1,2.119,5.906l-.773.323A13.153,13.153,0,0,0,78.1,3.984l.731-.279" transform="translate(-28.219 -1.338)" fill="#003d6e"/>
        <rect id="Rectangle_2144" data-name="Rectangle 2144" width="4.74" height="0.766" transform="translate(179.91 2.396)" fill="#003d6e"/>
        <path id="Path_19130" data-name="Path 19130" d="M187.976,14.773l-.562.507-2.688-2.737.579-.526,2.67,2.756" transform="translate(-66.742 -4.342)" fill="#003d6e"/>
        <path id="Path_19131" data-name="Path 19131" d="M140.524,4.783l-1.1-1.834.556-.308,1.13,1.815-.583.327" transform="translate(-50.373 -0.954)" fill="#003d6e"/>
        <path id="Path_19132" data-name="Path 19132" d="M138.1,5.7l-1.065-1.841.555-.305,1.1,1.874L138.1,5.7" transform="translate(-49.513 -1.284)" fill="#003d6e"/>
      </g>
    </g>
    <text id="BY" transform="translate(240 56.358)" fill="#003d6e" font-size="14" font-family="SegoeUI-Bold, Segoe UI" font-weight="700"><tspan x="0" y="0">BY</tspan></text>
    <g id="Group_4616" data-name="Group 4616" transform="translate(269 31.003)">
      <rect id="Rectangle_2247" data-name="Rectangle 2247" width="59.87" height="22.126" transform="translate(0.13 7.291)" fill="#e44100"/>
      <g id="Group_4620" data-name="Group 4620">
        <g id="Group_4619" data-name="Group 4619" clip-path="url(#clip-path-2)">
          <path id="Path_19136" data-name="Path 19136" d="M233.093,63.862v-.6h-9.277s.054,3.943-2.811,4.38l.007,2.092a5.806,5.806,0,0,0,2.962-1.151,12.022,12.022,0,0,1,4.455,3.18,5.466,5.466,0,0,1-3.6,1.165h-2.951v2.139h3.795c1.059,0,7.775-.095,7.421-11.206m-3.161,5.877a16.018,16.018,0,0,0-4.694-2.84,4.984,4.984,0,0,0,.35-1.553h5.12a10.29,10.29,0,0,1-.777,4.393" transform="translate(-175.82 -50.328)" fill="#fff"/>
          <path id="Path_19137" data-name="Path 19137" d="M22.682,68.408h4.557V66.4H15.661v2.012h4.548v7.231H15.053v2.146H27.911V75.639H22.682Z" transform="translate(-11.976 -52.821)" fill="#fff"/>
          <path id="Path_19138" data-name="Path 19138" d="M162.2,64.158a3.384,3.384,0,0,0,3.36-3.053h-3.592c-.226.724-.242,1.082-1.69,1.082h-6V64.2h5.077v1.727h-6.3v2.068h6.3c0,2.947-1.87,3.269-4.492,3.581v2.08c3.14-.231,6.811-1,6.827-5.661h3.8V65.926h-3.8v-1.76Z" transform="translate(-121.761 -48.612)" fill="#fff"/>
          <path id="Path_19139" data-name="Path 19139" d="M96.239,54.22V52.208h-5.43c-.1-2.5-3.06-3.412-3.466-3.543a3.233,3.233,0,0,0-.813-.1,1.535,1.535,0,0,1,.679.68,2.125,2.125,0,0,1,.219,1.026,6.882,6.882,0,0,1-.26,1.761c-.015.061-.029.12-.043.179H84.766V54.22H87.1a2.568,2.568,0,0,0,.5.984,3.971,3.971,0,0,0,2.929,1.146.228.228,0,0,0,.211-.159.2.2,0,0,0,.01-.065.221.221,0,0,0-.095-.181.927.927,0,0,1-.5-.772,2.848,2.848,0,0,1,.226-.874l.028-.08h2.862c-.764,1.931-4.2,4.9-9.406,5.134v1.984a17.5,17.5,0,0,0,5.93-1.306v4.161h2.437V59.456a9.73,9.73,0,0,1,4.5,2.447l1.184-1.724a11.132,11.132,0,0,0-4.272-2.322,5.991,5.991,0,0,0,2.584-3.637" transform="translate(-66.726 -38.633)" fill="#fff"/>
          <g id="Group_4618" data-name="Group 4618" transform="translate(21.084 11.5)" style="isolation: isolate">
            <g id="Group_4617" data-name="Group 4617">
              <g id="Group_4616-2" data-name="Group 4616" clip-path="url(#clip-path-3)">
                <path id="Path_19140" data-name="Path 19140" d="M104.721,61.362a1.169,1.169,0,0,1-.043-.323,2.967,2.967,0,0,1,.235-.967,4.743,4.743,0,0,0,.338-1.39c0-.042,0-.083,0-.123a2.78,2.78,0,0,0-1.774-2.312,3.094,3.094,0,0,1,.037.494,7.05,7.05,0,0,1-.253,1.675,4.1,4.1,0,0,0-.143,1,1.908,1.908,0,0,0,.394,1.259,2.245,2.245,0,0,0,1.2.691" transform="translate(-103.123 -56.247)" fill="#419f25"/>
              </g>
            </g>
          </g>
          <path id="Path_19141" data-name="Path 19141" d="M195.943,156.6a.964.964,0,0,0-.5-.172c-.175,0-.294.1-.294.232,0,.15.072.175.45.306a.764.764,0,0,1,.6.731.843.843,0,0,1-.931.822,1.51,1.51,0,0,1-.8-.238l.169-.522a1.061,1.061,0,0,0,.616.228c.191,0,.368-.081.368-.246,0-.182-.184-.248-.394-.322-.262-.094-.656-.232-.656-.732a.8.8,0,0,1,.854-.791,1.3,1.3,0,0,1,.653.181Z" transform="translate(-154.706 -124.024)" fill="#e44100"/>
          <rect id="Rectangle_2249" data-name="Rectangle 2249" width="0.585" height="2.523" transform="translate(42.112 31.924)" fill="#e44100"/>
          <path id="Path_19142" data-name="Path 19142" d="M213.347,156.143l1.035,1.61v-1.61h.578v2.523h-.616l-1.035-1.61v1.61h-.578v-2.523Z" transform="translate(-169.237 -124.219)" fill="#e44100"/>
          <path id="Path_19143" data-name="Path 19143" d="M228.249,158.339a1.862,1.862,0,0,1-.819.181,1.262,1.262,0,0,1-1.354-1.31,1.28,1.28,0,0,1,1.35-1.313,1.53,1.53,0,0,1,.823.241l-.187.531a.878.878,0,0,0-.628-.241.731.731,0,0,0-.775.782.741.741,0,0,0,.809.778,1.379,1.379,0,0,0,.782-.262Z" transform="translate(-179.854 -124.024)" fill="#e44100"/>
          <path id="Path_19144" data-name="Path 19144" d="M241.119,157.106v.519h-1v.509h1.129v.532h-1.707v-2.523h1.666v.532h-1.088v.431Z" transform="translate(-190.568 -124.219)" fill="#e44100"/>
          <path id="Path_19145" data-name="Path 19145" d="M253.25,156.143h.515v2.548h-.581v-1.932l-.438.306-.072-.531Z" transform="translate(-201.014 -124.219)" fill="#e44100"/>
          <path id="Path_19146" data-name="Path 19146" d="M261.43,157.662a1.089,1.089,0,0,0,.4.082.539.539,0,0,0,.581-.447.773.773,0,0,1-.4.109.808.808,0,0,1-.828-.837.9.9,0,0,1,.919-.916c.256,0,.969.109.969,1.184,0,.819-.416,1.438-1.212,1.438a1.4,1.4,0,0,1-.422-.062Zm.676-.756a.361.361,0,1,0-.35-.344.34.34,0,0,0,.35.344" transform="translate(-207.778 -123.828)" fill="#e44100"/>
          <path id="Path_19147" data-name="Path 19147" d="M272.266,157.543a1.126,1.126,0,0,0,.676.2c.2,0,.475-.063.475-.328,0-.116-.078-.275-.428-.275h-.306v-.475h.262c.241,0,.338-.119.338-.25,0-.187-.194-.231-.288-.231a.8.8,0,0,0-.609.291l-.2-.5a1.234,1.234,0,0,1,.835-.325.75.75,0,0,1,.844.713.547.547,0,0,1-.259.484.674.674,0,0,1,.4.628c0,.381-.282.8-1.06.8a1.583,1.583,0,0,1-.835-.216Z" transform="translate(-216.471 -123.828)" fill="#e44100"/>
          <path id="Path_19148" data-name="Path 19148" d="M284.982,156.428h-.976v.344a1.058,1.058,0,0,1,.263-.035.832.832,0,0,1,.888.844c0,.419-.269.888-1.035.888a1.775,1.775,0,0,1-.812-.191l.137-.532a1.245,1.245,0,0,0,.669.191c.059,0,.463,0,.463-.347a.322.322,0,0,0-.357-.322.365.365,0,0,0-.3.134h-.472V155.9h1.529Z" transform="translate(-225.386 -124.023)" fill="#e44100"/>
          <path id="Path_19149" data-name="Path 19149" d="M2.639,3.763A3.721,3.721,0,0,1,1.8,2.7v-.01h.731V2H1.875V1.284h.607V.6H1.316c.057-.21.1-.325.139-.483L.712,0A3.521,3.521,0,0,1,.088,1.437L.709,1.9a4.342,4.342,0,0,0,.344-.616h.124V2h-1v.687H1.1A2.5,2.5,0,0,1,0,4.133l.609.538a3.29,3.29,0,0,0,.955-1.208,3.282,3.282,0,0,0,.636.95L2.639,3.8v.741H4.588V.338H2.639Zm.679-2.728H3.89v2.8H3.317Z" fill="#e44100"/>
          <path id="Path_19150" data-name="Path 19150" d="M30.388,2.071l-.622-.081a3.881,3.881,0,0,0,.836-.755V.648H29.136a2.07,2.07,0,0,0,.143-.206L28.438.39a2.79,2.79,0,0,1-1.519.87l.32.592a3.756,3.756,0,0,0,.587-.229,5.657,5.657,0,0,1,.44.421,5.662,5.662,0,0,1-1.471.325L27.072,3a7.458,7.458,0,0,0,2.407-.831,4.291,4.291,0,0,1-2.169,1.08l.282.616a5.721,5.721,0,0,0,1-.339,2.946,2.946,0,0,1,.444.44,6.7,6.7,0,0,1-1.949.287l.273.712c2.727-.144,3.568-1.261,3.979-1.935V2.406h-1.19a1.863,1.863,0,0,0,.235-.334m-1.467-.306a5.045,5.045,0,0,0-.54-.454.948.948,0,0,0,.115-.076h1.18a2.506,2.506,0,0,1-.755.53m1.6,1.247A2.751,2.751,0,0,1,29.7,3.7a5.611,5.611,0,0,0-.53-.472c.12-.072.182-.115.32-.21Z" transform="translate(-21.317 -0.31)" fill="#e44100"/>
          <path id="Path_19151" data-name="Path 19151" d="M55.073,2.01A3.731,3.731,0,0,0,54.5.973l-.679.306a5.033,5.033,0,0,1,.554,1.026Z" transform="translate(-42.821 -0.774)" fill="#e44100"/>
          <path id="Path_19152" data-name="Path 19152" d="M54.872,2.685H56.6V2H55.88A5.551,5.551,0,0,0,56.492.908l-.722-.3a5.924,5.924,0,0,1-.564,1.055L55.77,2h-.9V.53h-.754V2H52.392v.683h1.725v.506H52.24v.693h1.877V5.068h.754V3.884h1.877V3.191H54.872Z" transform="translate(-41.559 -0.422)" fill="#e44100"/>
          <path id="Path_19153" data-name="Path 19153" d="M78.989,2.388H82.08V.8H80.5a2.759,2.759,0,0,0,.119-.286l-.836,0A2.583,2.583,0,0,1,79.7.8H78.283V3.711h.845v.578h-.41V3.84H78.01V4.849h2.919V3.84h-.678v.449h-.435V3.711h1.8c-.019.679-.1.679-.277.679h-.377l.143.655h.454c.358,0,.549-.1.64-.363a7.119,7.119,0,0,0,.158-1.462H78.989V3.038h3.483V2.561H78.989Zm0-1.151h2.375v.191H78.989Zm0,.55h2.375v.2H78.989Z" transform="translate(-62.061 -0.403)" fill="#e44100"/>
          <rect id="Rectangle_2250" data-name="Rectangle 2250" width="2.603" height="0.749" transform="translate(22.651 0.661)" fill="#e44100"/>
          <path id="Path_19154" data-name="Path 19154" d="M110.807,11.714a1.66,1.66,0,0,1,.521-1h-.87a1.909,1.909,0,0,0-.421,1.1c0,.8.626,1.147,1.748,1.147a6.287,6.287,0,0,0,1.161-.119v-.783a5.583,5.583,0,0,1-1.156.138c-.626,0-.984-.143-.984-.482" transform="translate(-87.539 -8.524)" fill="#e44100"/>
          <path id="Path_19155" data-name="Path 19155" d="M104.8,1.616c-.086.874-.134,1.758-.134,2.675,0,.506,0,1.022.034,1.524h.778c-.034-.549-.048-1.051-.048-1.538a25.781,25.781,0,0,1,.158-2.661Z" transform="translate(-83.27 -1.286)" fill="#e44100"/>
          <path id="Path_19156" data-name="Path 19156" d="M128.862,16.277l-.55.356a9.29,9.29,0,0,1,.822,1.026l.628-.409a8.71,8.71,0,0,0-.9-.973" transform="translate(-102.078 -12.949)" fill="#e44100"/>
          <path id="Path_19157" data-name="Path 19157" d="M146.517,3.6V2.926h-2.026c.01-.052.024-.124.048-.329a8.276,8.276,0,0,0,1.705-.224l-.31-.64c-.085.022-.176.042-.267.061a2.686,2.686,0,0,0,.133-.448h.712V.71h-1.218a2.078,2.078,0,0,0,.076-.229L144.659.39a2.294,2.294,0,0,1-.468.774V.71h-.87a1.182,1.182,0,0,0,.1-.224L142.7.39a2.547,2.547,0,0,1-.745.883l.435.569a2.253,2.253,0,0,0,.521-.5h.034a4.027,4.027,0,0,1,.167.53l.722-.134c-.053-.134-.115-.268-.177-.4h.368l-.052.043.544.487a2.785,2.785,0,0,0,.444-.53h.256a2.924,2.924,0,0,1-.186.555,20.053,20.053,0,0,1-2.778.1l.158.664c.606,0,.931-.014,1.428-.029a2.108,2.108,0,0,1-.043.291h-1.772V3.6h1.466a2.375,2.375,0,0,1-1.5.688l.406.678a2.636,2.636,0,0,0,1.872-1.347,2.687,2.687,0,0,0,1.916,1.347l.388-.688a2.656,2.656,0,0,1-1.486-.678Z" transform="translate(-112.928 -0.31)" fill="#e44100"/>
          <path id="Path_19158" data-name="Path 19158" d="M172.685,4.07V1.495h-.759c.028-.081.038-.114.076-.239h.817V.64h-2.226v.616h.73a1.572,1.572,0,0,1-.057.239H170.7V4.008l-.329-.267a3.077,3.077,0,0,1-1.409.817,3.982,3.982,0,0,0,.129-.726l.211.377a3.627,3.627,0,0,0,1.27-.869l-.325-.3a2.868,2.868,0,0,1-1.152.679c.015-.219.015-.329.015-.406V3.153l.172.286a3.355,3.355,0,0,0,1.07-.683l-.267-.215h.468V1.93H170.2c.062-.277.081-.4.1-.506h.225V.817h-.726V.506h-.678V.817h-.779v.607h.267a3.723,3.723,0,0,1,.105.506h-.249V3.181A2.249,2.249,0,0,1,168.2,4.5l.521.578a1.566,1.566,0,0,0,.2-.41l.253.415a3.75,3.75,0,0,0,1.572-1.017h.425a3.1,3.1,0,0,1-.888.487l.329.526a3.5,3.5,0,0,0,.975-.616l-.363-.4h.907l-.358.411a3.228,3.228,0,0,0,.822.583l.306-.559a2.388,2.388,0,0,1-.674-.435Zm-3.014-2.646c-.014.2-.047.4-.066.506h-.282a4.048,4.048,0,0,0-.091-.506Zm-.559,1.118h.764a2.206,2.206,0,0,1-.764.416Zm2.9,1h-.635V3.306h.635Zm0-.65h-.635V2.651h.635Zm0-.659h-.635V2h.635Z" transform="translate(-133.811 -0.403)" fill="#e44100"/>
          <path id="Path_19159" data-name="Path 19159" d="M197.167,2.107a2.21,2.21,0,0,0-2.284,2.279c0,1.013.593,1.61,1.133,1.61a.916.916,0,0,0,.836-.573,7.516,7.516,0,0,0,.7-2.561,1.135,1.135,0,0,1,.9,1.151,1.361,1.361,0,0,1-1.333,1.442v.731a2.008,2.008,0,0,0,2.122-2.145,1.878,1.878,0,0,0-2.074-1.935m-.8,2.556c-.148.373-.254.54-.368.54-.134,0-.382-.311-.382-.817A1.507,1.507,0,0,1,196.8,2.833a8.674,8.674,0,0,1-.429,1.83" transform="translate(-155.038 -1.676)" fill="#e44100"/>
          <path id="Path_19160" data-name="Path 19160" d="M222.821,2.927h1.519V2.254h-1.887V1.7h1.61V1.026h-1.61v-.5h-.731v.5h-1.586V1.7h1.586v.554h-1.877v.673h1.538a4.045,4.045,0,0,1-1.605,1.166l.4.721a4.451,4.451,0,0,0,1.543-1.342v1.6h.731V3.457A4.631,4.631,0,0,0,224,4.814l.425-.721a3.841,3.841,0,0,1-1.6-1.166" transform="translate(-174.843 -0.421)" fill="#e44100"/>
          <path id="Path_19161" data-name="Path 19161" d="M250.187,3.28V2.6h-.832a4.259,4.259,0,0,0,.267-.819l-.477-.136h.865V.978h-1.734v-.4h-.712v.4h-1.706v.669h.855l-.468.146a3.957,3.957,0,0,1,.258.809h-.826V3.28h1.442a4.041,4.041,0,0,1-1.524,1l.411.707a4.836,4.836,0,0,0,1.558-1.228V5.1h.712V3.729a4.367,4.367,0,0,0,1.581,1.261l.4-.693a4.336,4.336,0,0,1-1.529-1.018ZM247.564,2.6H246.7l.525-.115a3.968,3.968,0,0,0-.277-.841h.622Zm.712,0V1.646h.65a7.006,7.006,0,0,1-.277.807l.6.148Z" transform="translate(-195.383 -0.458)" fill="#e44100"/>
          <path id="Path_19162" data-name="Path 19162" d="M276.548,2.8a6.463,6.463,0,0,0-1.2.182.752.752,0,0,0-.736-.383,1.329,1.329,0,0,0-.473.105c.072-.1.193-.3.265-.427h2.025V1.6h-1.686c.057-.139.094-.271.146-.419h-.817a3.824,3.824,0,0,1-.146.419h-1.342v.678h.984a6.48,6.48,0,0,1-1.142,1.4V4.6c.435-.359.753-.726,1.04-.989a1.426,1.426,0,0,1,.964-.459.291.291,0,0,1,.187.062c-.76.306-1.347.75-1.347,1.275,0,.86.864,1.159,1.868,1.159a10.141,10.141,0,0,0,1.257-.081V4.833a8.379,8.379,0,0,1-1.251.105c-.626,0-1.085-.189-1.085-.49,0-.211.31-.421.779-.593.019.206.023.449.023.726h.717a8.408,8.408,0,0,0-.038-.917,7.3,7.3,0,0,1,1.008-.138Z" transform="translate(-216.728 -0.94)" fill="#e44100"/>
        </g>
      </g>
    </g>
    <text id="_知多エリア不動産売却サイト_" data-name="【知多エリア不動産売却サイト】" transform="translate(130 87)" fill="#003d6e" font-size="13" font-family="NotoSansJP-Bold, Noto Sans JP" font-weight="700"><tspan x="-97.5" y="0">【知多エリア不動産売却サイト】</tspan></text>
  </g>
</svg>
